<svg xmlns="http://www.w3.org/2000/svg" xml:space="preserve" id="a-to-z-funnel" x="0" y="0" enable-background="new 0 0 64 64" version="1.1" viewBox="0 0 64 64">
  <path fill="#00aeef" d="M48.74,57.73H38.42c-0.79,0-1.43-0.64-1.43-1.43V38.34l-13.51-12.3c-0.3-0.27-0.47-0.66-0.47-1.06v-7.39
			c0-0.79,0.64-1.43,1.43-1.43h38.13c0.79,0,1.43,0.64,1.43,1.43v7.39c0,0.4-0.17,0.79-0.47,1.06l-13.5,12.3l0.14,17.95
			c0,0.38-0.15,0.75-0.42,1.02C49.48,57.58,49.12,57.73,48.74,57.73z M39.85,54.86h7.44l-0.13-17.15c0-0.41,0.17-0.8,0.47-1.07
			l13.51-12.3v-5.33H25.87v5.33l13.51,12.3c0.3,0.27,0.47,0.66,0.47,1.06V54.86z"></path>
  <path fill="#34495c" d="M18.81,29.21c-0.59,0-1.15-0.37-1.35-0.96L10.81,9.22l-6.8,19.04c-0.27,0.74-1.08,1.13-1.83,0.87
				c-0.75-0.27-1.13-1.09-0.87-1.83L9.48,4.44c0.2-0.57,0.74-0.95,1.35-0.95c0,0,0,0,0,0c0.61,0,1.15,0.39,1.35,0.96l7.99,22.86
				c0.26,0.75-0.13,1.56-0.88,1.83C19.13,29.19,18.97,29.21,18.81,29.21z"></path>
  <path fill="#34495c" d="M15.89 20.86H5.65c-.79 0-1.43-.64-1.43-1.43 0-.79.64-1.43 1.43-1.43h10.25c.79 0 1.43.64 1.43 1.43C17.33 20.22 16.69 20.86 15.89 20.86zM17.95 60.51H1.43c-.55 0-1.05-.31-1.29-.81-.24-.5-.17-1.08.17-1.51l14.67-18.5H2.52c-.79 0-1.43-.64-1.43-1.43s.64-1.43 1.43-1.43h15.43c.55 0 1.05.31 1.29.81.24.5.17 1.08-.17 1.51L4.4 57.65h13.55c.79 0 1.43.64 1.43 1.43S18.74 60.51 17.95 60.51z"></path>
</svg>
